<svg width="56" height="56" viewBox="0 0 56 56" fill="none" xmlns="http://www.w3.org/2000/svg">
<g clip-path="url(#clip0_188_1579)">
<path d="M9.36752 21.7469C8.92622 21.2771 8.70557 20.7145 8.70557 20.059C8.70557 19.4035 8.92622 18.8184 9.36752 18.3598C9.80882 17.8984 10.366 17.6678 11.0362 17.6678C11.7064 17.6678 12.2912 17.8984 12.7325 18.3598C13.1738 18.8212 13.3944 19.3866 13.3944 20.059C13.3944 20.7314 13.1738 21.2771 12.7325 21.7469C12.2912 22.2167 11.7257 22.4502 11.0362 22.4502C10.3467 22.4502 9.80882 22.2167 9.36752 21.7469Z" fill="#464866"/>
<path d="M16.6904 31.4188C16.7621 29.3455 17.8323 27.9248 19.1755 26.7545C20.6208 25.4942 22.557 24.954 24.4298 24.954C26.8432 24.954 29.0828 25.9246 30.5942 27.8713C31.3224 28.8081 32.0836 30.0178 32.1388 31.4188V40.7081H27.2541V32.5301C27.2541 30.4454 25.9743 29.4046 24.4325 29.4046C22.8907 29.4046 21.5806 30.4454 21.5806 32.5301V40.7081H16.6959V31.4188H16.6904Z" fill="#464866"/>
<path d="M50.9987 29.0079C50.3312 27.6997 49.3851 26.6982 48.1605 26.0034C46.9359 25.3085 45.4962 24.9597 43.844 24.9597C42.1919 24.9597 40.6473 25.3226 39.3924 26.0484C38.1374 26.7742 37.1666 27.7588 36.4798 29.0079C35.793 30.2542 35.4482 31.6551 35.4482 33.208C35.4482 34.7609 35.7654 36.0382 36.4053 37.1634C37.0425 38.2887 37.9195 39.1608 39.0338 39.7854C40.1481 40.4099 41.4141 40.7194 42.8263 40.7194C44.6384 40.7194 46.0919 40.1567 47.1869 39.0342V39.3718C47.1069 40.9135 47.1869 41.7434 46.0064 43.0178C45.2865 43.7942 44.1392 44.0755 42.7656 44.0755C42.2278 44.0755 41.6513 44.0305 41.0335 43.9377C40.4157 43.8449 40.1316 43.8111 39.3152 43.6648C39.2131 43.6479 39.078 43.6198 38.9207 43.5889C37.8037 43.3638 36.7584 44.2359 36.7584 45.3978C36.7584 46.1827 37.2466 46.8803 37.9747 47.1392C38.0988 47.1842 38.2285 47.2292 38.3719 47.277C39.0807 47.5161 39.8861 47.6652 40.7604 47.7975C41.6375 47.9297 42.4732 47.9972 43.2703 47.9972C45.9788 47.9972 48.1109 47.201 49.6637 45.6059C51.2166 44.0108 51.9944 41.2173 51.9944 38.2944V33.7566C51.9944 31.8971 51.6606 30.3132 50.9931 29.0051L50.9987 29.0079ZM46.2629 35.5374C45.6451 36.2126 44.8177 36.5502 43.7834 36.5502C42.7491 36.5502 41.9216 36.2126 41.3038 35.5374C40.686 34.8622 40.377 34.0267 40.377 33.0224C40.377 32.018 40.686 31.1825 41.3038 30.5073C41.9216 29.8322 42.7463 29.4946 43.7834 29.4946C44.8204 29.4946 45.6451 29.8322 46.2629 30.5073C46.8808 31.1825 47.1897 32.0209 47.1897 33.0224C47.1897 34.0239 46.8808 34.8622 46.2629 35.5374Z" fill="#464866"/>
<path d="M11.05 24.954C12.3436 24.954 13.3944 26.0259 13.3944 27.3453V43.2175H8.70557V27.3453C8.70557 26.0259 9.75642 24.954 11.05 24.954Z" fill="#464866"/>
<path d="M4 43.2175H31.1181C32.4117 43.2175 33.4625 44.2894 33.4625 45.6088C33.4625 46.9282 32.4117 48 31.1181 48H4V43.2175Z" fill="#464866"/>
<path d="M49.7604 22.4503C49.1895 22.4503 48.6185 22.2533 48.1828 21.8595L34.3396 11.8697L20.4965 21.8595C19.6249 22.6472 18.2128 22.6472 17.3412 21.8595C16.4696 21.0718 16.4696 19.7946 17.3412 19.0069L32.762 7.59078C33.6335 6.80307 35.0457 6.80307 35.9173 7.59078L51.3353 19.0069C52.2069 19.7946 52.2069 21.0718 51.3353 21.8595C50.8995 22.2533 50.3286 22.4503 49.7577 22.4503H49.7604Z" fill="#FF6347"/>
</g>
<defs>
<clipPath id="clip0_188_1579">
<rect width="48" height="41" fill="white" transform="translate(4 7)"/>
</clipPath>
</defs>
</svg>
