<svg width="26" height="26" viewBox="0 0 26 26" fill="none" xmlns="http://www.w3.org/2000/svg">
<path d="M24.2956 25.7074C24.6855 26.0973 25.3177 26.0973 25.7076 25.7074C26.0975 25.3175 26.0975 24.6854 25.7076 24.2955L14.412 12.9999L25.7074 1.70452C26.0973 1.31462 26.0973 0.68247 25.7074 0.292572C25.3175 -0.0973257 24.6853 -0.0973253 24.2954 0.292572L13.0001 11.588L1.70457 0.292423C1.31468 -0.0974745 0.682528 -0.0974744 0.292631 0.292423C-0.0972657 0.682321 -0.0972653 1.31447 0.292632 1.70437L11.5881 12.9999L0.292423 24.2956C-0.0974742 24.6855 -0.0974742 25.3177 0.292423 25.7076C0.682319 26.0975 1.31447 26.0975 1.70436 25.7076L13.0001 14.4118L24.2956 25.7074Z" fill="#1E1E1E"/>
</svg>
