<svg width="36" height="22" viewBox="0 0 36 22" fill="none" xmlns="http://www.w3.org/2000/svg">
<path d="M0 1C0 0.447715 0.447715 0 1 0H35C35.5523 0 36 0.447715 36 1C36 1.55228 35.5523 2 35 2H1C0.447716 2 0 1.55228 0 1Z" fill="#1E1E1E"/>
<path d="M0 11C0 10.4477 0.447715 10 1 10H35C35.5523 10 36 10.4477 36 11C36 11.5523 35.5523 12 35 12H1C0.447716 12 0 11.5523 0 11Z" fill="#1E1E1E"/>
<path d="M0 21C0 20.4477 0.447715 20 1 20H35C35.5523 20 36 20.4477 36 21C36 21.5523 35.5523 22 35 22H1C0.447716 22 0 21.5523 0 21Z" fill="#1E1E1E"/>
</svg>
