<svg width="158" height="49" viewBox="0 0 158 49" fill="none" xmlns="http://www.w3.org/2000/svg">
<rect x="0.126953" width="157.747" height="48.0404" rx="4" fill="#464866"/>
<path d="M24.4232 16.2477C24.2355 16.4394 24.127 16.738 24.127 17.1246V30.9159C24.127 31.3025 24.2355 31.6011 24.4232 31.7929L24.4695 31.835L32.3856 24.1099V23.9275L24.4695 16.2025L24.4232 16.2477Z" fill="url(#paint0_linear_1654_25771)"/>
<path d="M35.0166 26.6865L32.3809 24.1102V23.9278L35.0198 21.3515L35.0789 21.385L38.2041 23.121C39.096 23.6137 39.096 24.4244 38.2041 24.9201L35.0789 26.653L35.0166 26.6865Z" fill="url(#paint1_linear_1654_25771)"/>
<path d="M35.0862 26.6527L32.3882 24.0187L24.4258 31.7929C24.722 32.0969 25.2051 32.1335 25.7544 31.8295L35.0862 26.6527Z" fill="url(#paint2_linear_1654_25771)"/>
<path d="M35.0862 21.3846L25.7544 16.2078C25.2051 15.9069 24.722 15.9435 24.4258 16.2475L32.3882 24.0186L35.0862 21.3846Z" fill="url(#paint3_linear_1654_25771)"/>
<path d="M56.0059 22.2861C55.7923 21.6038 55.4329 21.0726 54.9277 20.6924C54.4225 20.3122 53.8027 20.1247 53.0684 20.1299C52.4277 20.1247 51.8522 20.2887 51.3418 20.6221C50.8314 20.9502 50.4277 21.4346 50.1309 22.0752C49.8392 22.7106 49.6934 23.4736 49.6934 24.3643C49.6934 25.2549 49.8392 26.0205 50.1309 26.6611C50.4277 27.2965 50.8366 27.7809 51.3574 28.1143C51.8783 28.4424 52.4746 28.6038 53.1465 28.5986C53.7454 28.5986 54.2715 28.4788 54.7246 28.2393C55.1777 27.9997 55.5293 27.6585 55.7793 27.2158C56.0345 26.7679 56.1673 26.2445 56.1777 25.6455H53.3965V24.2236H57.8496V25.5049C57.8496 26.4424 57.6491 27.2653 57.248 27.9736C56.847 28.6768 56.2897 29.221 55.5762 29.6064C54.8626 29.9867 54.0475 30.1768 53.1309 30.1768C52.1152 30.1768 51.2194 29.9424 50.4434 29.4736C49.6673 28.9997 49.0632 28.3252 48.6309 27.4502C48.2038 26.57 47.9902 25.5413 47.9902 24.3643C47.9902 23.1872 48.2064 22.1611 48.6387 21.2861C49.071 20.4059 49.6699 19.7314 50.4355 19.2627C51.2064 18.7887 52.0788 18.5518 53.0527 18.5518C53.86 18.5518 54.597 18.7106 55.2637 19.0283C55.9355 19.3408 56.4902 19.7809 56.9277 20.3486C57.3652 20.9111 57.6465 21.557 57.7715 22.2861H56.0059ZM63.2871 30.1924C62.4954 30.1924 61.7975 30.0101 61.1934 29.6455C60.5944 29.2809 60.1309 28.7705 59.8027 28.1143C59.4798 27.4528 59.3184 26.6872 59.3184 25.8174C59.3184 24.9476 59.4798 24.182 59.8027 23.5205C60.1309 22.8538 60.5944 22.3382 61.1934 21.9736C61.7975 21.609 62.4954 21.4268 63.2871 21.4268C64.0736 21.4268 64.7663 21.609 65.3652 21.9736C65.9642 22.3382 66.4251 22.8538 66.748 23.5205C67.0762 24.182 67.2402 24.9476 67.2402 25.8174C67.2402 26.6872 67.0762 27.4528 66.748 28.1143C66.4251 28.7705 65.9642 29.2809 65.3652 29.6455C64.7663 30.0101 64.0736 30.1924 63.2871 30.1924ZM60.9902 25.8174C60.9902 26.3747 61.0762 26.8799 61.248 27.333C61.4199 27.7809 61.6777 28.1377 62.0215 28.4033C62.3652 28.6689 62.7871 28.8018 63.2871 28.8018C63.7767 28.8018 64.1908 28.6689 64.5293 28.4033C64.873 28.1377 65.1283 27.7809 65.2949 27.333C65.4668 26.8799 65.5527 26.3747 65.5527 25.8174C65.5527 25.2601 65.4668 24.7549 65.2949 24.3018C65.1283 23.8434 64.873 23.4788 64.5293 23.208C64.1908 22.9372 63.7767 22.8018 63.2871 22.8018C62.7871 22.8018 62.3652 22.9372 62.0215 23.208C61.6777 23.4788 61.4199 23.8434 61.248 24.3018C61.0762 24.7549 60.9902 25.2601 60.9902 25.8174ZM72.4746 30.1924C71.6829 30.1924 70.985 30.0101 70.3809 29.6455C69.7819 29.2809 69.3184 28.7705 68.9902 28.1143C68.6673 27.4528 68.5059 26.6872 68.5059 25.8174C68.5059 24.9476 68.6673 24.182 68.9902 23.5205C69.3184 22.8538 69.7819 22.3382 70.3809 21.9736C70.985 21.609 71.6829 21.4268 72.4746 21.4268C73.2611 21.4268 73.9538 21.609 74.5527 21.9736C75.1517 22.3382 75.6126 22.8538 75.9355 23.5205C76.2637 24.182 76.4277 24.9476 76.4277 25.8174C76.4277 26.6872 76.2637 27.4528 75.9355 28.1143C75.6126 28.7705 75.1517 29.2809 74.5527 29.6455C73.9538 30.0101 73.2611 30.1924 72.4746 30.1924ZM70.1777 25.8174C70.1777 26.3747 70.2637 26.8799 70.4355 27.333C70.6074 27.7809 70.8652 28.1377 71.209 28.4033C71.5527 28.6689 71.9746 28.8018 72.4746 28.8018C72.9642 28.8018 73.3783 28.6689 73.7168 28.4033C74.0605 28.1377 74.3158 27.7809 74.4824 27.333C74.6543 26.8799 74.7402 26.3747 74.7402 25.8174C74.7402 25.2601 74.6543 24.7549 74.4824 24.3018C74.3158 23.8434 74.0605 23.4788 73.7168 23.208C73.3783 22.9372 72.9642 22.8018 72.4746 22.8018C71.9746 22.8018 71.5527 22.9372 71.209 23.208C70.8652 23.4788 70.6074 23.8434 70.4355 24.3018C70.2637 24.7549 70.1777 25.2601 70.1777 25.8174ZM81.6309 33.3799C80.9225 33.3799 80.2975 33.2783 79.7559 33.0752C79.2142 32.8773 78.7845 32.5882 78.4668 32.208C78.1543 31.8278 77.9746 31.3747 77.9277 30.8486H79.6309C79.709 31.2393 79.9199 31.5335 80.2637 31.7314C80.6126 31.9346 81.0632 32.0361 81.6152 32.0361C82.3132 32.0361 82.8522 31.8825 83.2324 31.5752C83.6178 31.2679 83.8132 30.7913 83.8184 30.1455V28.4736H83.709C83.4954 28.8643 83.2012 29.2002 82.8262 29.4814C82.4564 29.7575 81.9277 29.8955 81.2402 29.8955C80.5632 29.8955 79.9564 29.7314 79.4199 29.4033C78.8835 29.0752 78.4616 28.596 78.1543 27.9658C77.847 27.3304 77.6934 26.5726 77.6934 25.6924C77.6934 24.8122 77.847 24.0518 78.1543 23.4111C78.4616 22.7653 78.8835 22.2731 79.4199 21.9346C79.9616 21.596 80.5736 21.4268 81.2559 21.4268C81.7402 21.4268 82.1439 21.5075 82.4668 21.6689C82.7949 21.8252 83.0475 22.0075 83.2246 22.2158C83.4017 22.4189 83.5684 22.6507 83.7246 22.9111H83.834V21.5361H85.459V30.208C85.459 30.9111 85.2949 31.4997 84.9668 31.9736C84.6439 32.4476 84.1934 32.7992 83.6152 33.0283C83.0423 33.2627 82.3809 33.3799 81.6309 33.3799ZM79.3965 25.7236C79.3913 26.5778 79.5814 27.2575 79.9668 27.7627C80.3522 28.2627 80.9017 28.5153 81.6152 28.5205C82.3236 28.5153 82.8704 28.2679 83.2559 27.7783C83.6413 27.2887 83.834 26.6038 83.834 25.7236C83.834 25.1455 83.748 24.6403 83.5762 24.208C83.4043 23.7757 83.1517 23.4424 82.8184 23.208C82.485 22.9684 82.084 22.8486 81.6152 22.8486C81.1361 22.8486 80.7298 22.9736 80.3965 23.2236C80.0632 23.4684 79.8105 23.8096 79.6387 24.2471C79.472 24.6794 79.3913 25.1715 79.3965 25.7236ZM89.1621 30.0205H87.4902V18.708H89.1621V30.0205ZM94.8496 30.1924C94.0267 30.1924 93.3105 30.0127 92.7012 29.6533C92.0918 29.2939 91.6257 28.7861 91.3027 28.1299C90.9798 27.4736 90.8184 26.708 90.8184 25.833C90.8184 24.9684 90.9798 24.2028 91.3027 23.5361C91.6257 22.8695 92.084 22.3512 92.6777 21.9814C93.2715 21.6117 93.959 21.4268 94.7402 21.4268C95.4225 21.4268 96.0475 21.5752 96.6152 21.8721C97.1829 22.1689 97.6387 22.6377 97.9824 23.2783C98.3314 23.9137 98.5059 24.7184 98.5059 25.6924V26.2861H92.4746C92.4902 26.8174 92.5996 27.2731 92.8027 27.6533C93.0059 28.0335 93.2845 28.3226 93.6387 28.5205C93.9928 28.7184 94.4017 28.8174 94.8652 28.8174C95.3132 28.8174 95.6934 28.734 96.0059 28.5674C96.3236 28.3955 96.5579 28.1715 96.709 27.8955H98.3965C98.2715 28.3538 98.0475 28.7575 97.7246 29.1064C97.4017 29.4502 96.9954 29.7184 96.5059 29.9111C96.0163 30.0986 95.4642 30.1924 94.8496 30.1924ZM96.8652 25.0361C96.8652 24.609 96.7767 24.2262 96.5996 23.8877C96.4277 23.5439 96.1803 23.2783 95.8574 23.0908C95.5397 22.8981 95.1725 22.8018 94.7559 22.8018C94.3236 22.8018 93.9382 22.9033 93.5996 23.1064C93.2663 23.3044 93.0033 23.5752 92.8105 23.9189C92.6178 24.2627 92.5085 24.6351 92.4824 25.0361H96.8652ZM104.209 18.708H108.24C109.094 18.708 109.813 18.8669 110.396 19.1846C110.985 19.4971 111.425 19.9294 111.717 20.4814C112.014 21.0335 112.162 21.6663 112.162 22.3799C112.162 23.0882 112.014 23.721 111.717 24.2783C111.425 24.8304 110.985 25.2653 110.396 25.583C109.808 25.8955 109.089 26.0518 108.24 26.0518H105.928V30.0205H104.209V18.708ZM108.068 24.583C108.865 24.5882 109.456 24.3903 109.842 23.9893C110.232 23.5882 110.428 23.0518 110.428 22.3799C110.428 21.7028 110.232 21.1689 109.842 20.7783C109.456 20.3825 108.865 20.182 108.068 20.1768H105.928V24.583H108.068ZM115.506 30.0205H113.834V18.708H115.506V30.0205ZM117.146 27.6299C117.141 26.7497 117.436 26.1221 118.029 25.7471C118.628 25.3721 119.391 25.1507 120.318 25.083C121.521 25.0153 122.264 24.9762 122.545 24.9658L122.537 24.2861C122.542 23.8018 122.396 23.4294 122.1 23.1689C121.808 22.9033 121.381 22.7705 120.818 22.7705C120.344 22.7705 119.956 22.8695 119.654 23.0674C119.352 23.2601 119.157 23.5205 119.068 23.8486H117.412C117.464 23.3799 117.639 22.9632 117.936 22.5986C118.232 22.2288 118.633 21.9424 119.139 21.7393C119.644 21.5309 120.225 21.4268 120.881 21.4268C121.417 21.4268 121.933 21.5101 122.428 21.6768C122.928 21.8382 123.35 22.1403 123.693 22.583C124.037 23.0205 124.209 23.6195 124.209 24.3799V30.0205H122.584V28.8643H122.521C122.329 29.234 122.021 29.5518 121.6 29.8174C121.178 30.0778 120.646 30.208 120.006 30.208C119.464 30.208 118.975 30.1064 118.537 29.9033C118.105 29.7002 117.764 29.4059 117.514 29.0205C117.269 28.6299 117.146 28.1663 117.146 27.6299ZM118.771 27.6455C118.771 28.0413 118.917 28.346 119.209 28.5596C119.506 28.7679 119.896 28.8747 120.381 28.8799C120.818 28.8799 121.201 28.7913 121.529 28.6143C121.857 28.4372 122.11 28.2028 122.287 27.9111C122.464 27.6143 122.553 27.2965 122.553 26.958L122.545 26.1846L120.553 26.3174C119.985 26.359 119.545 26.4893 119.232 26.708C118.925 26.9268 118.771 27.2393 118.771 27.6455ZM126.943 33.208C126.49 33.1976 126.193 33.182 126.053 33.1611V31.7705C126.136 31.7757 126.386 31.7861 126.803 31.8018C127.021 31.7965 127.199 31.7731 127.334 31.7314C127.475 31.695 127.613 31.596 127.748 31.4346C127.889 31.2783 128.021 31.0309 128.146 30.6924L128.35 30.1299L125.24 21.5361H127.021L129.162 28.1143H129.256L131.396 21.5361H133.193L129.693 31.1455C129.443 31.8278 129.094 32.3408 128.646 32.6846C128.199 33.0283 127.631 33.2028 126.943 33.208Z" fill="white"/>
<defs>
<linearGradient id="paint0_linear_1654_25771" x1="31.6827" y1="31.0595" x2="21.22" y2="20.3424" gradientUnits="userSpaceOnUse">
<stop stop-color="#00A0FF"/>
<stop offset="0.0066" stop-color="#00A1FF"/>
<stop offset="0.2601" stop-color="#00BEFF"/>
<stop offset="0.5122" stop-color="#00D2FF"/>
<stop offset="0.7604" stop-color="#00DFFF"/>
<stop offset="1" stop-color="#00E3FF"/>
</linearGradient>
<linearGradient id="paint1_linear_1654_25771" x1="39.3655" y1="24.0181" x2="23.909" y2="24.0181" gradientUnits="userSpaceOnUse">
<stop stop-color="#FFE000"/>
<stop offset="0.4087" stop-color="#FFBD00"/>
<stop offset="0.7754" stop-color="#FFA500"/>
<stop offset="1" stop-color="#FF9C00"/>
</linearGradient>
<linearGradient id="paint2_linear_1654_25771" x1="33.6191" y1="22.5868" x2="19.4308" y2="8.0535" gradientUnits="userSpaceOnUse">
<stop stop-color="#FF3A44"/>
<stop offset="1" stop-color="#C31162"/>
</linearGradient>
<linearGradient id="paint3_linear_1654_25771" x1="22.4215" y1="36.381" x2="28.7572" y2="29.8913" gradientUnits="userSpaceOnUse">
<stop stop-color="#32A071"/>
<stop offset="0.0685" stop-color="#2DA771"/>
<stop offset="0.4762" stop-color="#15CF74"/>
<stop offset="0.8009" stop-color="#06E775"/>
<stop offset="1" stop-color="#00F076"/>
</linearGradient>
</defs>
</svg>
