<svg width="152" height="40" viewBox="0 0 152 40" fill="none" xmlns="http://www.w3.org/2000/svg">
<path d="M5.26873 14.3881C4.83606 13.9315 4.61972 13.379 4.61972 12.7397C4.61972 12.1005 4.83606 11.5297 5.26873 11.0822C5.70141 10.6347 6.24676 10.4064 6.9093 10.4064C7.57183 10.4064 8.13972 10.6301 8.57239 11.0822C9.00507 11.5342 9.22141 12.0822 9.22141 12.7397C9.22141 13.3973 9.00507 13.9269 8.57239 14.3881C8.13972 14.8493 7.58535 15.0731 6.9093 15.0731C6.23324 15.0731 5.70141 14.8447 5.26873 14.3881Z" fill="#464866"/>
<path d="M12.462 23.8219C12.5296 21.7991 13.5842 20.4155 14.9003 19.274C16.32 18.0457 18.222 17.516 20.0608 17.516C22.4315 17.516 24.631 18.4612 26.1138 20.3607C26.8304 21.274 27.5741 22.4521 27.6282 23.8219V32.8858H22.8282V24.9087C22.8282 22.8767 21.5707 21.8584 20.0563 21.8584C18.542 21.8584 17.253 22.8767 17.253 24.9087V32.8858H12.453V23.8219H12.462Z" fill="#464866"/>
<path d="M46.1566 21.4703C45.5031 20.1963 44.5701 19.2146 43.3713 18.5388C42.1679 17.863 40.7572 17.5205 39.1301 17.5205C37.5031 17.5205 35.9932 17.8767 34.7583 18.5845C33.5279 19.2922 32.5724 20.2557 31.8963 21.4703C31.2203 22.6849 30.8823 24.0548 30.8823 25.5662C30.8823 27.0776 31.1932 28.3288 31.8197 29.4247C32.4462 30.5206 33.307 31.3744 34.4023 31.9817C35.4975 32.589 36.7369 32.895 38.1296 32.895C39.9099 32.895 41.3386 32.347 42.4113 31.2511V31.5799C42.3301 33.0822 42.4113 33.895 41.253 35.137C40.5454 35.895 39.4186 36.169 38.071 36.169C37.5437 36.169 36.9758 36.1233 36.3673 36.032C35.7589 35.9406 35.4839 35.9087 34.6817 35.7671C34.5825 35.7489 34.4473 35.726 34.2941 35.6941C33.1944 35.4749 32.1713 36.3242 32.1713 37.4612C32.1713 38.2283 32.649 38.9087 33.3656 39.1598C33.4873 39.2009 33.618 39.2466 33.7577 39.2922C34.4563 39.5251 35.2451 39.6712 36.1059 39.7991C36.9668 39.9269 37.787 39.9954 38.5713 39.9954C41.2304 39.9954 43.3262 39.2192 44.8496 37.6621C46.373 36.105 47.1392 33.3836 47.1392 30.5297V26.105C47.1392 24.2922 46.8101 22.7443 46.1566 21.4703ZM41.5054 27.8402C40.8969 28.4977 40.0856 28.8265 39.0716 28.8265C38.0575 28.8265 37.2417 28.4977 36.6377 27.8402C36.0293 27.1826 35.7273 26.3653 35.7273 25.3881C35.7273 24.411 36.0293 23.5936 36.6377 22.9361C37.2417 22.2785 38.0575 21.9498 39.0716 21.9498C40.0856 21.9498 40.9014 22.2785 41.5054 22.9361C42.1093 23.5936 42.4158 24.411 42.4158 25.3881C42.4158 26.3653 42.1138 27.1826 41.5054 27.8402Z" fill="#464866"/>
<path d="M6.89127 17.516H6.95437C8.20732 17.516 9.22592 18.5479 9.22592 19.8174V35.3333H4.61972V19.8174C4.61972 18.5479 5.63831 17.516 6.89127 17.516Z" fill="#464866"/>
<path d="M0 35.3333H26.6637C27.9166 35.3333 28.9352 36.3653 28.9352 37.6347V37.6986C28.9352 38.968 27.9166 40 26.6637 40H0V35.3333Z" fill="#464866"/>
<path d="M44.9397 15.0731C44.3808 15.0731 43.8175 14.8813 43.3893 14.4977L29.7961 4.75342L16.2028 14.4977C15.3465 15.2648 13.9583 15.2648 13.1065 14.4977C12.2501 13.7306 12.2501 12.484 13.1065 11.7123L28.2501 0.575342C29.1065 -0.191781 30.4946 -0.191781 31.3465 0.575342L46.4901 11.7123C47.3465 12.4795 47.3465 13.726 46.4901 14.4977C46.062 14.8813 45.5031 15.0731 44.9397 15.0731Z" fill="#FF6347"/>
<path d="M62.6163 20.3607C57.929 20.3607 55.3194 17.8767 55.3194 14.2192C55.3194 10.5616 57.929 8.07763 62.6163 8.07763H63.4051C68.0924 8.07763 70.702 10.5616 70.702 14.2192C70.702 17.8767 68.0924 20.3607 63.4051 20.3607H62.6163ZM63.04 31.9178C59.2451 31.9178 56.9014 29.9954 56.9014 26.9269C56.9014 23.8584 59.2451 21.9361 63.04 21.9361H71.3104C75.1054 21.9361 77.449 23.8584 77.449 26.9269C77.449 29.9954 75.1054 31.9178 71.3104 31.9178H63.04ZM63.6214 17.4795C65.7307 17.4795 67.1234 16.1963 67.1234 14.2237C67.1234 12.2511 65.7262 10.968 63.6214 10.968H62.409C60.2997 10.968 58.907 12.2466 58.907 14.2237C58.907 16.2009 60.3042 17.4795 62.409 17.4795H63.6214ZM71.0761 29.0365C72.7887 29.0365 73.8704 28.21 73.8704 26.9269C73.8704 25.6438 72.7887 24.8174 71.0761 24.8174H63.2789C61.5662 24.8174 60.4845 25.6438 60.4845 26.9269C60.4845 28.21 61.5662 29.0365 63.2789 29.0365H71.0761ZM75.1324 8.08676C76.1239 8.08676 76.9217 8.89954 76.9217 9.89954V21.4018H73.3386V9.89498C73.3386 8.89041 74.1408 8.08219 75.1279 8.08219L75.1324 8.08676Z" fill="#464866"/>
<path d="M81.1358 8.74889H91.5425V11.79H84.5611V17.7946H89.8299V20.7854H84.5611V27.3242H92.1735V30.3653H81.1358V8.74889ZM93.7555 20.653H90.7538V17.3973H93.7555V9.92241C93.7555 8.9772 94.5082 8.21464 95.4411 8.21464C96.3741 8.21464 97.1268 8.9772 97.1268 9.92241V31.3836H93.7555V20.653ZM100.791 8.08222C101.724 8.08222 102.477 8.84478 102.477 9.78999V31.9178H99.1054V9.78999C99.1054 8.84478 99.858 8.08222 100.791 8.08222Z" fill="#464866"/>
<path d="M106.033 17.7945H116.124V11.79H106.033V8.74886H119.707V20.7854H109.616V27.3242H121.812V30.3653H106.033V17.7945ZM125.188 8.07763C126.179 8.07763 126.977 8.89041 126.977 9.89041V31.9087H123.394V9.89498C123.394 8.89041 124.196 8.08219 125.183 8.08219L125.188 8.07763Z" fill="#464866"/>
<path d="M131.191 14.9133C131.191 10.6439 133.985 8.21464 138.172 8.21464C142.359 8.21464 145.154 10.6439 145.154 14.9133V17.5297H148.421V9.89501C148.421 8.89044 149.224 8.08222 150.211 8.08222C151.202 8.08222 152 8.89501 152 9.89501V31.9133H148.417V20.7854H145.149V23.9361C145.149 28.2055 142.355 30.6347 138.168 30.6347C133.981 30.6347 131.186 28.2055 131.186 23.9361V14.9133H131.191ZM141.571 14.8311C141.571 12.6439 140.282 11.2557 138.172 11.2557C136.063 11.2557 134.774 12.6439 134.774 14.8311V24.0137C134.774 26.2009 136.068 27.5891 138.172 27.5891C140.277 27.5891 141.571 26.2009 141.571 24.0137V14.8311Z" fill="#464866"/>
</svg>
