<svg width="32" height="40" viewBox="0 0 32 40" fill="none" xmlns="http://www.w3.org/2000/svg">
<path d="M32 14.5455C32 22.4459 30.6543 25.358 16.7139 39.288C16.3244 39.6771 15.6756 39.6771 15.2861 39.288C1.34567 25.358 0 22.4459 0 14.5455C0 6.51222 7.93184 0 16 0C24.0682 0 32 6.51222 32 14.5455Z" fill="#DDDDDD"/>
<path fill-rule="evenodd" clip-rule="evenodd" d="M27.1243 23.3071C28.9099 20.3983 29.2174 18.2783 29.2174 14.5455C29.2174 11.5347 27.7289 8.64185 25.2149 6.42978C22.6962 4.21358 19.3296 2.85714 16 2.85714C12.6704 2.85714 9.30379 4.21358 6.7851 6.42978C4.2711 8.64185 2.78261 11.5347 2.78261 14.5455C2.78261 18.2783 3.0901 20.3983 4.87574 23.3071C6.58924 26.0984 9.65555 29.5888 15.2899 35.2929C15.6799 35.6877 16.3201 35.6877 16.7101 35.2929C22.3445 29.5888 25.4108 26.0984 27.1243 23.3071ZM15.2861 39.288C15.6756 39.6771 16.3244 39.6771 16.7139 39.288C30.6543 25.358 32 22.4459 32 14.5455C32 6.51222 24.0682 0 16 0C7.93184 0 0 6.51222 0 14.5455C0 22.4459 1.34567 25.358 15.2861 39.288Z" fill="#1E1E1E"/>
</svg>
