<svg width="48" height="48" viewBox="0 0 48 48" fill="none" xmlns="http://www.w3.org/2000/svg">
<path d="M40 18.5455C40 26.4459 38.6543 29.358 24.7139 43.288C24.3244 43.6771 23.6756 43.6771 23.2861 43.288C9.34567 29.358 8 26.4459 8 18.5455C8 10.5122 15.9318 4 24 4C32.0682 4 40 10.5122 40 18.5455Z" fill="#FF8871"/>
<path fill-rule="evenodd" clip-rule="evenodd" d="M35.1243 27.3071C36.9099 24.3983 37.2174 22.2783 37.2174 18.5455C37.2174 15.5347 35.7289 12.6419 33.2149 10.4298C30.6962 8.21358 27.3296 6.85714 24 6.85714C20.6704 6.85714 17.3038 8.21358 14.7851 10.4298C12.2711 12.6419 10.7826 15.5347 10.7826 18.5455C10.7826 22.2783 11.0901 24.3983 12.8757 27.3071C14.5892 30.0984 17.6555 33.5888 23.2899 39.2929C23.6799 39.6877 24.3201 39.6877 24.7101 39.2929C30.3445 33.5888 33.4108 30.0984 35.1243 27.3071ZM23.2861 43.288C23.6756 43.6771 24.3244 43.6771 24.7139 43.288C38.6543 29.358 40 26.4459 40 18.5455C40 10.5122 32.0682 4 24 4C15.9318 4 8 10.5122 8 18.5455C8 26.4459 9.34567 29.358 23.2861 43.288Z" fill="#1E1E1E"/>
</svg>
