<svg width="18" height="18" viewBox="0 0 18 18" fill="none" xmlns="http://www.w3.org/2000/svg">
<g clip-path="url(#clip0_33_2689)">
<path d="M8.99986 7.36377V10.8492H13.8435C13.6308 11.9701 12.9925 12.9193 12.0353 13.5574L14.9562 15.8238C16.658 14.253 17.6398 11.9457 17.6398 9.20477C17.6398 8.5666 17.5826 7.9529 17.4762 7.36387L8.99986 7.36377Z" fill="#4285F4"/>
<path d="M3.95601 10.7129L3.29723 11.2172L0.965378 13.0335C2.44628 15.9708 5.48151 17.9999 8.99967 17.9999C11.4296 17.9999 13.4669 17.1981 14.956 15.8235L12.0351 13.5572C11.2333 14.0972 10.2105 14.4245 8.99967 14.4245C6.65968 14.4245 4.67156 12.8454 3.95969 10.7181L3.95601 10.7129Z" fill="#34A853"/>
<path d="M0.965384 4.96631C0.351781 6.17717 0 7.54355 0 8.99989C0 10.4562 0.351781 11.8226 0.965384 13.0335C0.965384 13.0416 3.95998 10.7098 3.95998 10.7098C3.77998 10.1698 3.67359 9.59715 3.67359 8.9998C3.67359 8.40245 3.77998 7.82975 3.95998 7.28976L0.965384 4.96631Z" fill="#FBBC05"/>
<path d="M8.99985 3.58363C10.3253 3.58363 11.5035 4.0418 12.4444 4.92545L15.0216 2.34821C13.4589 0.891874 11.4299 0 8.99985 0C5.4817 0 2.44628 2.02091 0.965378 4.96637L3.95988 7.29001C4.67166 5.16271 6.65986 3.58363 8.99985 3.58363Z" fill="#EA4335"/>
</g>
<defs>
<clipPath id="clip0_33_2689">
<rect width="18" height="18" fill="white"/>
</clipPath>
</defs>
</svg>
